<?xml version="1.0" encoding="utf-8"?>
<!-- Uploaded to: SVG Repo, www.svgrepo.com, Generator: SVG Repo Mixer Tools -->
<svg width="800px" height="800px" viewBox="0 -7.5 374.262 374.262" xmlns="http://www.w3.org/2000/svg"><defs><style>.a{fill:#ffffff;}.b{fill:#211715;}.c{fill:#f2635f;}.d{fill:#ececec;}.e{fill:#a6a2a1;}.f{fill:#f4b467;}</style></defs><path class="a" d="M186.512,261.886c-16.543.017-32.485.036-39.714.036-3.639,19.44-10.969,65.413-15.683,94.765,7.787,0,31.337.226,55.4.148,24.06.078,47.61-.148,55.4-.148-5.236-32.914-12.179-76.586-15.682-94.765C219,261.922,203.056,261.9,186.512,261.886Z"/><path class="b" d="M186.512,259.486q-19.857.02-39.714.036a2.427,2.427,0,0,0-2.315,1.762c-2,10.712-3.775,21.469-5.555,32.22q-3.414,20.619-6.709,41.256-1.712,10.644-3.418,21.289a2.438,2.438,0,0,0,2.314,3.038c13.235,0,26.47.143,39.706.161q26.438.035,52.876-.074c6.07-.031,12.141-.085,18.212-.087a2.438,2.438,0,0,0,2.314-3.038q-3.275-20.587-6.584-41.171c-2.064-12.77-4.144-25.539-6.342-38.287-.882-5.109-1.777-10.216-2.756-15.307a2.419,2.419,0,0,0-2.314-1.762q-19.859,0-39.715-.036c-3.089,0-3.093,4.8,0,4.8q19.857.019,39.715.036l-2.315-1.762c1.96,10.188,3.65,20.429,5.349,30.663q3.418,20.594,6.686,41.211,1.83,11.445,3.648,22.891l2.314-3.038c-13.235,0-26.471.143-39.706.161q-26.437.035-52.876-.074c-6.07-.031-12.141-.085-18.212-.087l2.314,3.038q3.156-19.645,6.323-39.289c2.123-13.1,4.26-26.2,6.5-39.283.923-5.4,1.858-10.805,2.865-16.193l-2.314,1.762q19.857,0,39.714-.036C189.6,264.282,189.606,259.482,186.512,259.486Z"/><path class="b" d="M152.1,341.435c8.305,0,16.611-.08,24.916-.146q16.02-.129,32.039-.319c3.874-.05,7.748-.094,11.621-.192,3.083-.079,3.095-4.879,0-4.8-8.278.21-16.561.257-24.841.341q-16.029.162-32.06.265c-3.892.024-7.784.05-11.675.051-3.089,0-3.094,4.8,0,4.8Z"/><path class="b" d="M158.065,323.243c15.7,0,31.4-.183,47.1-.385,3.185-.041,6.372-.078,9.557-.158,3.083-.078,3.095-4.879,0-4.8-15.678.4-31.373.4-47.054.5-3.2.02-6.4.041-9.6.042-3.089,0-3.094,4.8,0,4.8Z"/><path class="c" d="M176.73,291.587c0-3.46-4.762-6.34-10.42-6.34-7.848,0-11.218,4.135-11.218,6.982,0,4.214,4.747,7.36,11.5,7.36C173.861,299.589,176.73,295.417,176.73,291.587Z"/><path class="d" d="M256.416,53.207c4.8-2.259,9.734.242,11.752,7.927,1.2,4.572-.225,20.519-1.026,22.768-1.441,4.046-2.59,5.486-4.919,6.678a8.7,8.7,0,0,1-7.869.144"/><path class="d" d="M118.675,53.207c-4.8-2.259-9.734.242-11.752,7.927-1.2,4.572.225,20.519,1.026,22.768,1.441,4.046,2.59,5.486,4.919,6.678a8.7,8.7,0,0,0,7.869.144"/><path class="d" d="M212.867,141.749V130.735s0-.037,0-.109c-13.009.039-39.243.316-48.425.316v11.319c9.08-.316,38.726-.32,48.421-.014Z"/><path class="e" d="M262.292,231.246c-1.16-6.076-3.106-20.634-5.351-26.414a278.613,278.613,0,0,0-28.187-54.1c-1.816-2.711-3.8-5.5-6.722-6.957-2.436-1.217-5.249-1.365-7.97-1.482-8.394-.362-41.989-.362-50.383,0-2.721.117-5.533.265-7.97,1.482-2.919,1.457-4.906,4.246-6.721,6.957a278.562,278.562,0,0,0-28.188,54.1c-2.328,5.994-6.645,19.585-7.777,25.894"/><path class="e" d="M126.1,141.2a100.592,100.592,0,0,0-10.308-1.443c-2.947-.233-6.028-.318-8.728.886-3.013,1.345-5.125,4.1-7.016,6.8A153.484,153.484,0,0,0,86,172.118a11.323,11.323,0,0,0-1.408,5.665,10.877,10.877,0,0,0,2.036,4.705,73.753,73.753,0,0,0,32.356,27.2c.58-1.632,1.19-3.251,1.813-4.855a278.562,278.562,0,0,1,28.188-54.1c.582-.87,1.183-1.748,1.826-2.588A139.281,139.281,0,0,0,126.1,141.2Z"/><path class="e" d="M258.5,140.157c-9.779,1.445-22.54,5.655-30.89,8.914.393.548.772,1.106,1.144,1.661a278.613,278.613,0,0,1,28.187,54.1,39.76,39.76,0,0,1,1.457,5.007,73.743,73.743,0,0,0,32.712-27.351,10.865,10.865,0,0,0,2.036-4.705,11.323,11.323,0,0,0-1.408-5.665A153.484,153.484,0,0,0,277.7,147.447c-1.89-2.705-4-5.459-7.016-6.8-2.7-1.2-5.781-1.119-8.728-.886C260.855,139.844,259.7,139.98,258.5,140.157Z"/><path class="e" d="M161.38,130.736c-25.951,0-33.628-15.427-36.8-28.467-6.106-10.593-7.257-43.556-4.123-55.559,4.247-10.944,9.216-22.142,18.194-29.7,13.107-11.042,31.875-14.6,48.9-14.6s35.791,3.563,48.9,14.6c8.978,7.563,13.947,18.761,18.194,29.705,3.134,12,1.983,44.966-4.123,55.559-3.175,13.04-10.852,28.467-36.8,28.467"/><path class="d" d="M160.015,31.472c-7.65,1.847-15.075,5.84-19.476,12.364-3.123,4.629-4.527,10.192-5.482,15.694a117.654,117.654,0,0,0,1.518,47.441,37.663,37.663,0,0,0,12.543,20.052,16.609,16.609,0,0,0,10.458,3.919c9.883,0,45.164-.321,55.941-.321,3.553,0,7.464-1.89,10.065-3.737a33.673,33.673,0,0,0,12.936-19.913,117.636,117.636,0,0,0,1.519-47.441c-.955-5.5-2.36-11.065-5.483-15.694-4.4-6.524-11.826-10.517-19.475-12.364S167.664,29.624,160.015,31.472Z"/><path class="b" d="M174.205,78.088c1.352,4.405.471,14.538-7.851,15.4-11-.066-11.585-12.317-7.882-18.078C161.5,70.694,170.417,68.733,174.205,78.088Z"/><path class="b" d="M219.683,78.088c1.352,4.405.471,14.538-7.851,15.4-11-.066-11.584-12.317-7.882-18.078C206.981,70.694,215.9,68.733,219.683,78.088Z"/><path class="b" d="M182.109,112.975h13.017a2.4,2.4,0,1,0,0-4.8H182.109a2.4,2.4,0,0,0,0,4.8Z"/><path class="f" d="M156.7,245.326c-.019,0,.216,28.326.234,28.326,0,3.62,17.584,3.035,17.584-.061,0-10.186-.177-22.025-.177-31.825"/><path class="b" d="M154.3,245.326a30.045,30.045,0,0,0,.017,3.19q.027,3.753.058,7.506.061,7.719.133,15.439c.012,1.236-.154,2.706.444,3.833,1.206,2.275,4.243,2.752,6.541,3.039a32.48,32.48,0,0,0,8.664-.166c2.162-.314,5.089-.846,6.3-2.911a4.692,4.692,0,0,0,.46-2.517q0-2.181-.013-4.361-.019-4.512-.06-9.024c-.047-5.863-.1-11.725-.1-17.588,0-3.089-4.8-3.094-4.8,0,0,9.749.148,19.5.173,29.246q0,.864,0,1.727a3.909,3.909,0,0,0,0,.852c0,.018.12-.7.045-.386a1.779,1.779,0,0,1,.311-.59c-.124.132.526-.235-.034.011-.07.03-.662.326-.291.163s-.321.107-.405.134a13.857,13.857,0,0,1-1.581.4c-.28.056-.561.1-.842.15-.146.024-.293.046-.44.065.1-.014.446-.052-.042,0-.671.073-1.343.129-2.017.163a32.213,32.213,0,0,1-3.979-.035c-.3-.022-.607-.05-.91-.082-.147-.015-.294-.032-.44-.052.094.013.462.074,0-.006a14.385,14.385,0,0,1-1.617-.355c-.218-.064-.429-.142-.644-.216-.048-.016.357.22-.044-.038-.338-.218-.285-.306-.048.014-.359-.485.282.462-.025-.015a3.242,3.242,0,0,1,.216.663,1.52,1.52,0,0,0-.006-.436c-.008-.609-.013-1.218-.019-1.827q-.071-7.281-.126-14.562-.033-3.951-.062-7.9a33.2,33.2,0,0,1-.019-3.527,2.416,2.416,0,0,0-2.4-2.4,2.453,2.453,0,0,0-2.4,2.4Z"/><path class="b" d="M2.318,236.958c23.679,0,47.358-.215,71.035-.477q42.765-.474,85.527-1.185,43.308-.695,86.615-1.524,37.149-.707,74.3-1.494,24.29-.518,48.576-1.095,1.788-.043,3.577-.09c3.083-.079,3.1-4.879,0-4.8q-22.219.57-44.442,1.02-35.913.776-71.83,1.464-42.9.828-85.813,1.54-43.194.712-86.392,1.247c-24.521.292-49.043.534-73.565.586q-3.792.007-7.585.008c-3.088,0-3.093,4.8,0,4.8Z"/><path class="b" d="M203.457,157.212q3.6,0,7.206-.015,1.733,0,3.464-.006a14.869,14.869,0,0,1,1.58,0l-2.315-1.762h0l2.315-3.038a.6.6,0,0,1-.085,0,2.4,2.4,0,0,0,0,4.8.6.6,0,0,0,.085,0,2.519,2.519,0,0,0,1.884-.946,2.274,2.274,0,0,0,.43-2.092h0a2.545,2.545,0,0,0-2.314-1.762,14.869,14.869,0,0,0-1.58,0q-1.733,0-3.464.006-3.6.009-7.206.015a2.4,2.4,0,0,0,0,4.8Z"/><path class="b" d="M264.606,230.608c-1.329-7.018-2.2-14.119-3.818-21.083a69.5,69.5,0,0,0-3.756-10.877q-3.017-7.294-6.416-14.424a278.642,278.642,0,0,0-15.046-27.373c-2.576-4.121-5.093-8.66-8.464-12.2a14.328,14.328,0,0,0-6.02-3.831,27.251,27.251,0,0,0-7.15-.936c-11.933-.49-23.922-.311-35.861-.233-5.154.034-10.325.015-15.474.289a21.127,21.127,0,0,0-7.519,1.492,14.984,14.984,0,0,0-5.356,4.247,109.222,109.222,0,0,0-8.4,12.535,278.763,278.763,0,0,0-14.79,27.251c-4.5,9.513-8.8,19.333-11.775,29.443a76.679,76.679,0,0,0-1.868,7.783,2.467,2.467,0,0,0,1.676,2.953,2.422,2.422,0,0,0,2.953-1.677c1.84-10.037,5.835-19.665,9.92-28.97a278.7,278.7,0,0,1,13.675-27.058q3.784-6.571,7.921-12.931c2.183-3.354,4.508-7.94,8.493-9.423,2.811-1.046,5.994-.913,8.961-.984,2.518-.06,5.038-.092,7.557-.117,12.336-.124,24.688-.174,37.022.112,2.906.068,5.948-.016,8.743.853,4.1,1.276,6.456,5.822,8.646,9.174a278.525,278.525,0,0,1,15.17,26.249q3.433,6.762,6.493,13.7a119.63,119.63,0,0,1,5.032,12.407c2.107,6.756,2.968,13.935,4.128,20.9.222,1.334.447,2.669.7,4a2.422,2.422,0,0,0,2.952,1.676,2.451,2.451,0,0,0,1.676-2.952Z"/><path class="d" d="M114.575,207.608c-3.6,7.193-1.64,14.21,6.4,14.468,4.891.157,16.9.379,20.948.492,4.129.115,6.683,28.748,1.993,28.609-16.793-.5-43.149-.989-60.311-1.483A14.95,14.95,0,0,1,70.288,228.9c6.2-14.634,12.451-27.886,19.1-42.393"/><path class="b" d="M112.5,206.4c-1.621,3.316-2.636,7.116-1.694,10.787a9.58,9.58,0,0,0,6.686,6.772c2.954.882,6.372.6,9.428.675q5.169.12,10.338.227,2.013.043,4.025.093a3.75,3.75,0,0,1,.637.017c.025.078-.754-.2-.792-.217.511.279-.427-.445.119.136-.574-.61.052.128.2.4.076.143.137.294.213.437.22.419-.122-.4.08.2.313.935.611,1.864.843,2.824a47.211,47.211,0,0,1,1.112,6.745,62.457,62.457,0,0,1,.331,7.54c-.023,1.113-.1,2.218-.209,3.325-.045.451.074-.377-.024.184-.04.227-.073.455-.117.681a11.757,11.757,0,0,1-.292,1.2c-.053.173-.122.341-.175.514-.016.051.285-.458.021-.072a1.692,1.692,0,0,0-.218.372c-.074.271.431-.471.04-.094.168-.162.554-.532.945-.374a8.334,8.334,0,0,0-2.352-.065c-8.023-.227-16.047-.41-24.071-.594q-12.54-.287-25.079-.586-2.859-.07-5.718-.148a33.163,33.163,0,0,1-4.895-.254,12.634,12.634,0,0,1-7.734-4.631,12.773,12.773,0,0,1-2.635-8.606,14.213,14.213,0,0,1,1.232-4.686q1.511-3.568,3.074-7.117c4.042-9.221,8.271-18.36,12.486-27.5q1.582-3.434,3.16-6.869a2.472,2.472,0,0,0-.861-3.284,2.421,2.421,0,0,0-3.284.861c-4.386,9.563-8.839,19.1-13.134,28.7-2.138,4.783-4.316,9.567-6.277,14.427a17.215,17.215,0,0,0-.591,10.95A17.6,17.6,0,0,0,83.929,252.1c8.219.258,16.442.422,24.662.61q13.017.3,26.035.61,2.922.075,5.843.155a15.852,15.852,0,0,0,4.47-.044c1.9-.525,2.8-2.558,3.228-4.3,1.151-4.717.765-9.959.209-14.73a53.7,53.7,0,0,0-1.362-7.7,12.333,12.333,0,0,0-2.4-5.247c-1.592-1.714-4.071-1.324-6.2-1.372q-5.257-.117-10.513-.23-2.474-.055-4.948-.12a15.5,15.5,0,0,1-4.328-.45c-2.632-.83-3.559-3.148-3.348-5.879a13.241,13.241,0,0,1,1.373-4.584,2.462,2.462,0,0,0-.861-3.284,2.421,2.421,0,0,0-3.283.861Z"/><path class="d" d="M264.052,207.146c1.271,3.6,3.208,8.354,4.141,10.989,3.219,9.09-.028,13.887-7.8,19.6-5.847,4.294-12.743,8.489-17.11,11.864-2.184,1.687,13.22,26.277,15.432,24.845,9.848-6.376,23.522-15.821,33.99-23.353,10.145-7.3,12.686-21.213,8.305-32.918-3.916-10.461-7.978-20.682-13.072-31.218"/><path class="b" d="M261.738,207.784c1.281,3.6,2.759,7.129,4.047,10.727,1.035,2.89,1.692,5.937.81,8.755-.808,2.586-3.018,4.822-5.2,6.659a116.519,116.519,0,0,1-10.4,7.392c-1.776,1.189-3.556,2.372-5.313,3.589a27.576,27.576,0,0,0-4.165,3.058c-1.22,1.262-.881,3.14-.373,4.637a58.316,58.316,0,0,0,6.067,11.692,60.518,60.518,0,0,0,7.76,10.635c1.1,1.114,2.573,2.326,4.256,1.877,1.433-.382,2.854-1.694,4.078-2.5q2.485-1.638,4.954-3.3,10.641-7.15,21.091-14.583c3.114-2.21,6.422-4.3,8.968-7.182a28.2,28.2,0,0,0,5.432-9.337,33.272,33.272,0,0,0-.065-21.353c-2.99-8.881-6.73-17.629-10.577-26.168q-1.5-3.342-3.1-6.641a2.423,2.423,0,0,0-3.284-.861,2.452,2.452,0,0,0-.861,3.284c3.962,8.214,7.472,16.627,10.743,25.138a62.666,62.666,0,0,1,3.615,11.033,28.014,28.014,0,0,1,.107,9.6,25.211,25.211,0,0,1-3.323,9.068,23.728,23.728,0,0,1-6.625,6.805q-9.927,7.117-20.028,13.991-4.792,3.264-9.63,6.46-1.084.716-2.173,1.424c-.176.115-.9.735-1.048.681-.052-.019.662-.248.448-.191a2.246,2.246,0,0,1,1.075,0c-.521-.12.636.308.059.017-.5-.25.357.366-.2-.163a19.981,19.981,0,0,1-1.462-1.534c-.255-.3-.5-.6-.748-.9q-.213-.265-.422-.534c.3.389-.158-.21-.247-.329-1.358-1.811-2.628-3.688-3.848-5.594-1.257-1.963-2.459-3.962-3.588-6-.517-.934-1.019-1.878-1.494-2.835q-.309-.621-.6-1.248c-.089-.2-.174-.391-.263-.586-.241-.529.11.314-.09-.213-.231-.609-.44-1.21-.616-1.837-.2-.728-.048.329-.032-.125s-.039.2-.068.314c.1-.4-.253.487-.147.31-.266.445-.708.7-.075.231q.508-.381,1.023-.752c.792-.573,1.594-1.132,2.4-1.686,1.717-1.181,3.453-2.334,5.184-3.493,3.494-2.34,7.015-4.674,10.293-7.313a22.511,22.511,0,0,0,6.162-6.983c3.248-6.373.541-12.792-1.828-18.937-.7-1.817-1.4-3.636-2.049-5.472a2.463,2.463,0,0,0-2.953-1.676,2.422,2.422,0,0,0-1.676,2.952Z"/><path class="b" d="M187.545,4.8c14.924.024,30.664,2.565,43.3,10.988a46.768,46.768,0,0,1,14.891,16.9A101.869,101.869,0,0,1,250.593,43,34.5,34.5,0,0,1,252.46,47.9c.237,1,.423,2,.58,3.015q.063.405.121.811c.061.437-.013-.123.042.325.076.634.148,1.268.211,1.9.131,1.33.23,2.662.306,4,.169,2.964.224,5.935.2,8.9a145.658,145.658,0,0,1-1.233,18.284c-.374,2.743-.854,5.478-1.5,8.171-.287,1.2-.608,2.388-.983,3.561-.165.515-.34,1.028-.528,1.535-.09.241-.183.48-.278.719-.011.029-.148.358-.042.107.12-.283-.1.232-.128.285a18.242,18.242,0,0,0-1.272,3.09c-.276,1.064-.578,2.122-.913,3.17s-.7,2.067-1.1,3.081c-.268.677-.206.532-.494,1.176q-.366.82-.769,1.624a34.067,34.067,0,0,1-3.593,5.694,28.422,28.422,0,0,1-5.074,4.862,33.807,33.807,0,0,1-16.445,5.841c-1.948.2-3.9.279-5.862.285-3.088.01-3.094,4.81,0,4.8,7.182-.023,14.452-1.156,20.9-4.451A32.178,32.178,0,0,0,246.7,117.759a45.242,45.242,0,0,0,5.742-13.337q.1-.38.2-.76c.04-.155.221-.8.037-.34.188-.473.485-.921.7-1.387a34.366,34.366,0,0,0,1.349-3.452,58.116,58.116,0,0,0,1.9-7.751,134.5,134.5,0,0,0,1.986-19.164,127.23,127.23,0,0,0-.448-18.136,43.171,43.171,0,0,0-1.141-7.088,48.067,48.067,0,0,0-2.11-5.37c-.813-1.952-1.65-3.893-2.548-5.806-3.44-7.325-7.852-14.434-14.068-19.729C225.932,4.908,209.338.942,193.45.146,191.483.048,189.515,0,187.545,0c-3.088,0-3.093,4.8,0,4.8Z"/><path class="b" d="M159.377,29.157c-6.564,1.617-12.979,4.672-17.742,9.56-5.234,5.37-7.532,12.524-8.818,19.751a120.236,120.236,0,0,0,1.389,48.911,40.126,40.126,0,0,0,9.749,18.033,25.426,25.426,0,0,0,8.4,6.375,20.779,20.779,0,0,0,8.364,1.554c9.315-.018,18.63-.1,27.945-.17q7.965-.055,15.931-.106c3.877-.022,7.849.211,11.717-.074,6.982-.516,13.282-5.31,17.468-10.657,4.47-5.711,6.674-12.31,8.064-19.348,3.118-15.783,3.309-32.6-.338-48.322-1.659-7.154-4.907-13.76-10.761-18.379a36.589,36.589,0,0,0-16.089-7.339,86.118,86.118,0,0,0-10.394-.916c-4.776-.223-9.557-.313-14.337-.338a235.889,235.889,0,0,0-26.614.87,32.164,32.164,0,0,0-3.934.595c-3,.711-1.733,5.34,1.276,4.629.458-.108.921-.192,1.387-.264.139-.022.278-.041.417-.062.53-.08-.594.071-.041.006.384-.045.768-.092,1.153-.132,1.7-.177,3.4-.3,5.106-.393,4.363-.251,8.734-.361,13.1-.418,8.941-.116,17.929-.085,26.852.561.787.057,1.574.121,2.359.2q.523.05,1.045.109l.486.057c.7.077-.3-.049.116.013a31.8,31.8,0,0,1,5.535,1.409c5.71,1.95,11.211,5.4,14.547,10.536,3.837,5.909,4.988,13.343,5.808,20.211A117.783,117.783,0,0,1,239,88.761a111.45,111.45,0,0,1-1.514,11.555,64.122,64.122,0,0,1-2.5,10.117,30.034,30.034,0,0,1-10.9,14.584,16.149,16.149,0,0,1-8.559,3.2c-1.584.028-3.169.006-4.753.012q-6.684.029-13.367.078-15.049.1-30.1.2c-3.6.02-7.645.5-11.141-.45a17.532,17.532,0,0,1-7.7-4.907,36.239,36.239,0,0,1-5.866-7.54c-3.517-6.056-4.762-13.119-5.743-19.969a115.1,115.1,0,0,1-.907-22.962c.431-7.38,1.279-15.134,3.852-22.111a25.205,25.205,0,0,1,12.337-13.651,37.55,37.55,0,0,1,8.526-3.137C163.651,33.048,162.381,28.418,159.377,29.157Z"/><path class="b" d="M210.467,130.735v10.681a2.4,2.4,0,0,0,4.8,0V130.735a2.4,2.4,0,1,0-4.8,0Z"/><path class="b" d="M162.046,131.632v9.784a2.4,2.4,0,0,0,4.8,0v-9.784a2.4,2.4,0,0,0-4.8,0Z"/><path class="d" d="M188.948,231.773c0-12.1-11.023-22.172-24.122-22.172-18.167,0-25.969,14.46-25.969,24.417,0,14.737,10.989,25.735,26.632,25.735C182.306,259.753,188.948,245.164,188.948,231.773Z"/><path class="b" d="M191.348,231.773c-.11-12.884-10.924-22.82-23.266-24.363-11.39-1.424-22.963,3.972-28.381,14.216a27.737,27.737,0,0,0,1.935,29A29.527,29.527,0,0,0,173.6,260.958c11.009-3.542,16.486-14.388,17.554-25.268.128-1.3.186-2.609.191-3.917.011-3.089-4.789-3.094-4.8,0-.033,8.789-3.006,18.685-11.112,23.2-8.539,4.759-20.721,2.376-27.541-4.368a22.727,22.727,0,0,1-6.288-12.25,23.9,23.9,0,0,1-.229-6.536c0-.047.107-.788.03-.269.034-.231.072-.46.113-.689q.105-.585.238-1.162a25.467,25.467,0,0,1,.915-3.062,23.677,23.677,0,0,1,36.545-9.564,19.406,19.406,0,0,1,7.329,14.7C186.574,234.86,191.374,234.867,191.348,231.773Z"/><path class="d" d="M243.282,249.6c-6.161-3.716-13.794-3.243-20.026.354-4.705,2.715-8.988,9.278-10.526,14.488-1.484,5.028-2.617,10.492-.875,15.436,2.454,6.965,10.164,10.97,17.541,11.3s14.539-2.267,21.434-4.912c2.419-.928,4.973-1.969,6.484-4.075,2.325-3.238,1.364-7.737-.069-11.458A59.26,59.26,0,0,0,243.282,249.6"/><path class="b" d="M244.493,247.522c-9.14-5.366-21.252-2.895-27.957,5.171a33.724,33.724,0,0,0-6.727,13.285c-1.405,5.421-1.947,11.189.5,16.4,4.162,8.847,15.082,12.063,24.122,11,5.762-.675,11.211-2.571,16.6-4.634a20.971,20.971,0,0,0,6.952-3.715,10.037,10.037,0,0,0,3.084-6.672,19.131,19.131,0,0,0-1.513-8.264,61.314,61.314,0,0,0-14.581-22.2c-2.21-2.162-5.607,1.229-3.394,3.394a57.352,57.352,0,0,1,8.541,10.56,46.845,46.845,0,0,1,5.617,11.943,9.9,9.9,0,0,1,.258,5.75c-.607,1.807-2.2,2.81-3.843,3.591a68.536,68.536,0,0,1-6.529,2.514,69.11,69.11,0,0,1-7.316,2.208c-7.612,1.784-16.836,1.285-22.19-5.22-2.731-3.319-3.146-7.715-2.458-11.829A32.152,32.152,0,0,1,218,258.78a18.966,18.966,0,0,1,10.089-8.4,16.886,16.886,0,0,1,13.978,1.285c2.669,1.567,5.088-2.58,2.422-4.145Z"/><path class="b" d="M150.468,145.438a134.293,134.293,0,0,0-24.74-6.737,77.373,77.373,0,0,0-12.613-1.483,16.729,16.729,0,0,0-7.444,1.437,15.825,15.825,0,0,0-5.163,4.222,93.77,93.77,0,0,0-8.157,12.006Q88.5,161.263,85.284,168c-1.084,2.269-2.413,4.647-2.89,7.135a10.4,10.4,0,0,0,1.472,7.465,65.866,65.866,0,0,0,8.086,10.655,76,76,0,0,0,23.819,17.61,2.468,2.468,0,0,0,3.283-.861,2.42,2.42,0,0,0-.861-3.284,72.221,72.221,0,0,1-19.916-13.811,70,70,0,0,1-7.867-9.137c-1.171-1.635-2.643-3.422-3.243-5.366-.627-2.035.453-4.09,1.289-5.908a151.644,151.644,0,0,1,13.889-24.161c2.33-3.3,4.951-6.044,9.21-6.285a52.625,52.625,0,0,1,11.54,1.045,134.066,134.066,0,0,1,26.1,6.973,2.417,2.417,0,0,0,2.952-1.676,2.455,2.455,0,0,0-1.676-2.952Z"/><path class="b" d="M228.555,151.266a176.174,176.174,0,0,1,22.642-7.223,70.341,70.341,0,0,1,10.755-1.886,18.987,18.987,0,0,1,6.64.282,10.125,10.125,0,0,1,4.725,3.23c2.9,3.224,5.2,7.163,7.452,10.853q3.708,6.063,6.844,12.452a48.882,48.882,0,0,1,2.756,6.117c.745,2.267.145,3.871-1.1,5.823a66.681,66.681,0,0,1-7.56,9.684,72.424,72.424,0,0,1-22.165,16.118,2.421,2.421,0,0,0-.861,3.284,2.453,2.453,0,0,0,3.283.861,76,76,0,0,0,30.315-25.824c1.295-1.884,2.694-3.9,3.117-6.19.509-2.751-.392-5.255-1.5-7.733a143.966,143.966,0,0,0-14.827-25.852c-2.839-3.909-6.174-7.131-11.149-7.833-4.368-.616-8.956.133-13.254.953a157.586,157.586,0,0,0-27.4,8.255,2.471,2.471,0,0,0-1.676,2.953,2.417,2.417,0,0,0,2.952,1.676Z"/><path class="e" d="M305.222,241.9c2.972-10.672,1.39-22.681-4.849-31.882-10.162,3.51-22.276,7.116-32.219,11.085a12.758,12.758,0,0,1-2.444,11.714c-.507.6-1.11,1.28-.988,2.057.113.725.81,1.189,1.443,1.561,10.263,6.031,22.623,12,33.1,17.641A36.457,36.457,0,0,0,305.222,241.9Z"/><path class="b" d="M307.536,242.536c3.089-11.321,1.481-23.915-5.091-33.732a2.453,2.453,0,0,0-2.71-1.1c-10.736,3.7-21.66,6.887-32.219,11.084a2.457,2.457,0,0,0-1.676,2.953,10.505,10.505,0,0,1-1.388,8.774c-1.045,1.571-2.552,2.892-2.045,5,.449,1.861,2.14,2.765,3.667,3.649,6.7,3.88,13.6,7.414,20.479,10.966,3.847,1.985,7.693,3.972,11.506,6.021a2.477,2.477,0,0,0,3.284-.861,39.34,39.34,0,0,0,6.193-12.748c.847-2.977-3.784-4.247-4.629-1.277a35.6,35.6,0,0,1-5.709,11.6l3.284-.861c-8.346-4.485-16.845-8.678-25.177-13.188q-3.045-1.648-6.052-3.364c-.5-.289-1.006-.577-1.5-.872-.063-.037-.895-.6-.913-.6q-.018,1.559.314.844.256-.3.5-.61c.329-.414.652-.835.945-1.275a15.232,15.232,0,0,0,1.871-12.473l-1.676,2.953c10.559-4.2,21.483-7.384,32.219-11.085l-2.71-1.1a36.742,36.742,0,0,1,4.606,30.033C302.093,244.244,306.722,245.517,307.536,242.536Z"/><path class="b" d="M257.627,55.279a4.631,4.631,0,0,1,3.659-.2,6.761,6.761,0,0,1,3.017,2.824,13.145,13.145,0,0,1,1.195,2.656c.162.495.314,1,.426,1.509.034.154.169,1.037.089.414a34.435,34.435,0,0,1,.216,4.3c.011,3.554-.207,7.114-.542,10.652q-.1,1.1-.229,2.192c-.04.346-.083.691-.127,1.036-.055.425.083-.558-.014.1-.024.161-.046.321-.071.481a13.7,13.7,0,0,1-.858,3.2,11.118,11.118,0,0,1-1.367,2.555,5.411,5.411,0,0,1-1.322,1.133c-2.221,1.349-4.34,1.2-6.707.283a2.417,2.417,0,0,0-2.952,1.676,2.456,2.456,0,0,0,1.676,2.953c4.938,1.921,10.694.584,13.68-3.959,2.006-3.052,2.527-6.415,2.917-9.947a111.029,111.029,0,0,0,.717-12.078c0-4.126-.459-8.11-2.669-11.718a11.064,11.064,0,0,0-5.92-4.926,9.994,9.994,0,0,0-7.236.723,2.419,2.419,0,0,0-.861,3.284,2.457,2.457,0,0,0,3.283.861Z"/><path class="b" d="M187.545,0c-15.835.025-32.7,2.817-46.046,11.862a51.632,51.632,0,0,0-16.092,18.047,109.409,109.409,0,0,0-5.3,11.253,36.437,36.437,0,0,0-2.663,8.36,104.657,104.657,0,0,0-1.069,17.169,151.438,151.438,0,0,0,1.405,19.72c.738,5.3,1.734,10.722,3.984,15.617.188.409.43.8.609,1.213.136.312-.122-.384-.027-.011.027.108.058.216.081.324.07.328.169.654.256.976q.448,1.659.994,3.289a46.907,46.907,0,0,0,2.921,6.9,33.352,33.352,0,0,0,10.279,11.792c5.417,3.814,11.934,5.634,18.456,6.32a59.639,59.639,0,0,0,6.051.3c3.089.01,3.094-4.79,0-4.8-6.463-.021-13.126-.963-18.862-4a27.414,27.414,0,0,1-10.382-9.622c-.627-.991-1.2-2.016-1.729-3.064-.533-1.063-.955-2.023-1.263-2.8a53.839,53.839,0,0,1-2.037-6.36,17.385,17.385,0,0,0-1.245-2.981c-.057-.125-.112-.251-.166-.377.015.035.142.344.037.084-.095-.236-.189-.474-.279-.713-.2-.541-.391-1.089-.567-1.64a60.064,60.064,0,0,1-1.817-7.555A126.275,126.275,0,0,1,121.276,71.4a129.191,129.191,0,0,1,.4-17.453c.136-1.376.211-2.016.391-3.153.154-.973.334-1.943.563-2.9A34.332,34.332,0,0,1,124.5,43q1.085-2.64,2.289-5.229c3.241-6.935,7.268-13.61,13.1-18.679,11.384-9.9,27.253-13.449,41.954-14.16,1.9-.091,3.8-.133,5.706-.136,3.089,0,3.094-4.8,0-4.8Z"/><path class="b" d="M119.886,51.134c-4.261-1.926-8.9-1.176-11.946,2.53-2.83,3.442-3.774,7.7-3.866,12.044a102.609,102.609,0,0,0,.569,12.13,28.127,28.127,0,0,0,2.247,9.783c2.611,5.508,8.9,7.591,14.485,5.418a2.471,2.471,0,0,0,1.676-2.953A2.417,2.417,0,0,0,120.1,88.41c-2.089.813-4.09,1.114-6.138.036a5.387,5.387,0,0,1-2.711-2.812,12.934,12.934,0,0,1-1.278-3.627c-.041-.225-.077-.45-.113-.676-.023-.151-.129-.891-.1-.669.026.193-.078-.621-.1-.8-.049-.412-.094-.824-.138-1.237-.37-3.514-.6-7.051-.654-10.584-.021-1.542-.012-3.089.114-4.626.026-.312.055-.623.095-.932-.078.6.025-.1.056-.255a14.612,14.612,0,0,1,.918-2.909,7.978,7.978,0,0,1,3.492-4.131,4.62,4.62,0,0,1,1.745-.38,5.065,5.065,0,0,1,2.175.47,2.472,2.472,0,0,0,3.283-.861,2.419,2.419,0,0,0-.861-3.284Z"/><path class="e" d="M68.472,240.952A42.91,42.91,0,0,1,66,233.88c-1.5-5.775,1.278-16.144,6.073-22.211a2.417,2.417,0,0,1,.964-.871,2.453,2.453,0,0,1,1.426.068c16.169,4.021,24.227,4.049,40.745,1.871-1.165,4.52-.288,7.392,1.994,9.372-7.669,8.52-15.032,16.774-23.681,22.7-3.636,2.492-9.5,5.638-13.9,5.727C74.653,250.64,70.962,246.365,68.472,240.952Z"/><path class="b" d="M70.545,239.741c-1.889-4.18-2.985-8.052-2.344-12.542a31.593,31.593,0,0,1,4.45-12.2,23.834,23.834,0,0,0,1.544-2.142l-.732.239.357.083a4.337,4.337,0,0,0,1.163.286q1.23.3,2.466.58c2.429.552,4.872,1.048,7.332,1.445a80.263,80.263,0,0,0,13.493,1.087,139.746,139.746,0,0,0,16.929-1.441l-2.314-3.038c-1.033,4.2-.791,8.65,2.611,11.708v-3.395c-5.969,6.632-11.921,13.373-18.836,19.05a51.6,51.6,0,0,1-9.555,6.345c-2.755,1.382-6.432,3.063-9.533,2.027-3.488-1.164-5.577-4.981-7.031-8.093a2.42,2.42,0,0,0-3.284-.861,2.453,2.453,0,0,0-.861,3.283c1.668,3.571,4,7.151,7.462,9.211,3.624,2.156,7.76,1.748,11.58.354,8.511-3.105,15.651-9.289,21.979-15.6,3.975-3.964,7.718-8.152,11.473-12.322a2.435,2.435,0,0,0,0-3.395c-2.034-1.828-2.053-4.287-1.376-7.037.33-1.341-.7-3.25-2.315-3.038-10.267,1.347-20.438,2.088-30.7.262-2.769-.493-5.516-1.1-8.249-1.762-1.462-.354-3.006-.849-4.438-.111a8.221,8.221,0,0,0-2.639,2.828,34.843,34.843,0,0,0-5.5,13.679,24.558,24.558,0,0,0-.351,7.322,34.256,34.256,0,0,0,3.065,9.608,2.418,2.418,0,0,0,3.284.861A2.458,2.458,0,0,0,70.545,239.741Z"/><path class="b" d="M133.9,279.6a23.773,23.773,0,0,0-10.134-4.973,2.4,2.4,0,0,0-1.276,4.629,21.507,21.507,0,0,1,2.378.642c.389.131.772.279,1.156.426q.359.147-.147-.066l.283.124c.187.083.374.169.559.258a20.834,20.834,0,0,1,2.154,1.194q.521.329,1.021.689c.057.041.5.312.5.367q-.423-.329-.122-.09l.239.194a2.581,2.581,0,0,0,1.7.7,2.4,2.4,0,0,0,1.7-4.1Z"/><path class="b" d="M130.449,288.709a26.4,26.4,0,0,0-10.255,1.843,2.62,2.62,0,0,0-1.435,1.1,2.4,2.4,0,0,0,2.711,3.525,24.644,24.644,0,0,1,4.631-1.351q.264-.05.529-.093c.067-.011.78-.112.389-.062s.324-.035.392-.042c.178-.018.356-.035.534-.049a24.611,24.611,0,0,1,2.5-.074,2.4,2.4,0,1,0,0-4.8Z"/></svg>